<svg width="84" height="84" viewBox="0 0 84 84" fill="none" xmlns="http://www.w3.org/2000/svg">
<path d="M63 28H59.5V21C59.5 11.34 51.66 3.5 42 3.5C32.34 3.5 24.5 11.34 24.5 21V28H21C17.15 28 14 31.15 14 35V70C14 73.85 17.15 77 21 77H63C66.85 77 70 73.85 70 70V35C70 31.15 66.85 28 63 28ZM31.5 21C31.5 15.19 36.19 10.5 42 10.5C47.81 10.5 52.5 15.19 52.5 21V28H31.5V21ZM63 70H21V35H63V70ZM42 59.5C45.85 59.5 49 56.35 49 52.5C49 48.65 45.85 45.5 42 45.5C38.15 45.5 35 48.65 35 52.5C35 56.35 38.15 59.5 42 59.5Z" fill="#272727"/>
</svg>
