
<svg width="24" height="24" viewBox="0 0 24 24" fill="none" xmlns="http://www.w3.org/2000/svg">
<g clip-path="url(#clip0_745_48810)">
<path d="M2.625 9.74998V15.75H6.625L11.625 20.75V4.74998L6.625 9.74998H2.625ZM16.125 12.75C16.125 10.98 15.105 9.45998 13.625 8.71998V16.77C15.105 16.04 16.125 14.52 16.125 12.75ZM13.625 3.97998V6.03998C16.515 6.89998 18.625 9.57998 18.625 12.75C18.625 15.92 16.515 18.6 13.625 19.46V21.52C17.635 20.61 20.625 17.03 20.625 12.75C20.625 8.46998 17.635 4.88998 13.625 3.97998Z" fill="#272727"/>
</g>
<defs>
<clipPath id="clip0_745_48810">
<path d="M0 2C0 0.89543 0.895431 0 2 0H22C23.1046 0 24 0.895431 24 2V22C24 23.1046 23.1046 24 22 24H2C0.89543 24 0 23.1046 0 22V2Z" fill="white"/>
</clipPath>
</defs>
</svg>